<svg width="106" height="46" viewBox="0 0 106 46" fill="none" xmlns="http://www.w3.org/2000/svg">
<path fill-rule="evenodd" clip-rule="evenodd" d="M88.0982 27.7032C88.0982 24.6423 87.4225 22.252 86.0965 20.5324C84.6437 18.6279 82.5448 17.7036 79.7956 17.7251C77.2913 17.7251 75.336 18.5591 73.9128 20.3045C72.4263 22.0156 71.7168 24.1221 71.7168 26.6543C71.7168 29.483 72.4938 31.6885 74.0437 33.3006C75.4965 34.844 77.4687 35.635 79.9561 35.635C81.9795 35.6998 83.9564 35.0086 85.5137 33.6918C86.6705 32.6379 87.4825 31.2486 87.8406 29.7109H84.1623C83.8303 30.509 83.3215 31.2182 82.6758 31.783C81.8683 32.3407 80.9055 32.6181 79.9307 32.5741C78.7757 32.6416 77.6508 32.1832 76.8605 31.323C76.1426 30.5019 75.7245 29.281 75.5936 27.7032H88.0982ZM75.6612 24.883C75.7904 23.7443 76.2641 22.6747 77.0168 21.8221V21.8178C77.792 21.0793 78.8334 20.701 79.8927 20.7731C82.4773 20.7731 83.9342 22.1187 84.2552 24.883H75.6612Z" fill="#3F3F41"/>
<path d="M106 24.681V35.1707H102.317V25.0077C102.317 22.209 101.05 20.829 98.5165 20.829C97.6227 20.8237 96.7631 21.1793 96.1263 21.8178C95.3133 22.6501 94.8357 23.7619 94.7875 24.9346V35.1664H91.105V18.1679H94.7875V20.1412C95.3841 19.3851 96.1329 18.768 96.9835 18.3313C97.8372 17.9052 98.778 17.6916 99.7286 17.7079C103.888 17.7036 106 20.0079 106 24.681Z" fill="#3F3F41"/>
<path fill-rule="evenodd" clip-rule="evenodd" d="M64.035 25.416L70.6442 35.1749H65.8172L59.3643 25.6009H55.3228V35.1706H51.522V11.6848H61.8221C64.1828 11.6848 66.0579 12.2136 67.4135 13.297C68.8367 14.4835 69.58 16.1945 69.58 18.43V18.645V18.86C69.58 21.0998 68.8367 22.8108 67.4135 23.993C66.4216 24.7468 65.2602 25.236 64.035 25.416ZM61.3027 14.9736H55.3228V22.3078H61.3027C62.7766 22.3078 63.9041 21.9768 64.6812 21.3534C65.4046 20.6484 65.7927 19.6591 65.7454 18.6407C65.7927 17.6224 65.4046 16.633 64.6812 15.928C63.921 15.3046 62.7892 14.9736 61.3027 14.9736Z" fill="#3F3F41"/>
<path d="M6.17841 9.6729L9.50199 7.72972L9.94964 8.51215L22.2009 1.31981L21.3056 0.795327L20.4061 0.262243L19.9584 0L0 11.7364V12.2609L5.73076 8.88617L6.17841 9.6729Z" fill="#3F3F41"/>
<path d="M6.17841 17.0629L15.7818 11.414L16.2294 12.2093L28.4806 5.01266L27.5853 4.47957L26.6858 3.95509L26.2382 3.69714L0 19.1179V19.6424L5.73076 16.2676L6.17841 17.0629Z" fill="#3F3F41"/>
<path d="M6.17841 20.7559L18.9195 13.267L19.3714 14.0537L31.6184 6.84845L30.7231 6.33256L29.8278 5.79947L29.3759 5.53723L0 22.8023V23.3354L5.73076 19.9649L6.17841 20.7559Z" fill="#3F3F41"/>
<path d="M6.17841 24.4445L22.1502 15.0596L22.6021 15.8463L34.7604 8.70128L33.8651 8.1682L32.9656 7.64371L32.5179 7.38147L0 26.4994V27.0239L5.73076 23.6491L6.17841 24.4445Z" fill="#3F3F41"/>
<path d="M6.17841 28.1288L25.2922 16.8997L25.7398 17.695L37.8982 10.5413L37.0029 10.0212L36.1076 9.48807L35.6557 9.22583L0 30.1838V30.7083L5.73076 27.3421L6.17841 28.1288Z" fill="#3F3F41"/>
<path d="M39.2453 11.3366L38.7977 11.0701L0 33.8809V34.4054L5.73076 31.0392L6.17841 31.826L25.2922 20.5968L25.7398 21.3835L39.9168 13.0562V11.9987V11.7364L39.2453 11.3366Z" fill="#3F3F41"/>
<path d="M2.45776 36.6453L5.67154 34.758L6.11919 35.5447L25.1992 24.3327L25.6468 25.1281L39.9167 16.7406V15.683V14.6254V14.101L2.01855 36.383L2.45776 36.6453Z" fill="#3F3F41"/>
<path d="M25.1991 28.0299L25.6468 28.8252L39.9166 20.4377V19.3802V18.3226V17.7981L5.15625 38.2273L5.60812 38.4895L8.86836 36.5678L9.32023 37.3631" fill="#3F3F41"/>
<path d="M8.74613 40.3381L12.0106 38.4121L12.4582 39.2074L25.1994 31.7142L25.647 32.5095L39.9169 24.122V23.0645V22.0155V21.4867L8.29004 40.0673L8.74613 40.3381Z" fill="#3F3F41"/>
<path d="M11.8837 42.1825L15.1481 40.2651L15.6 41.0518L25.1991 35.4115L25.6468 36.1982L39.9167 27.8107V26.7617V25.7042V25.1797L11.436 41.9202L11.8837 42.1825Z" fill="#3F3F41"/>
<path d="M14.5781 43.7645L15.0258 44.0267L18.2987 42.105L18.7379 42.9003L25.1992 39.0957L25.6469 39.891L39.9168 31.5035V30.4459V29.3884V28.8639L14.5781 43.7645Z" fill="#3F3F41"/>
<path d="M18.1635 45.8797L21.4279 43.9494L21.8756 44.7447L25.1992 42.7843L25.6468 43.5797L39.9167 35.2008V34.1432V33.0856V32.5612L17.7158 45.6174L18.1635 45.8797Z" fill="#3F3F41"/>
<path d="M25.3429 3.16405L24.4433 2.63957L23.548 2.11508L23.1004 1.84424L0 15.4207V15.9452L5.73076 12.5833L6.17841 13.3657L12.6398 9.56966L13.1001 10.365L25.3429 3.16405Z" fill="#3F3F41"/>
</svg>
