<svg xmlns="http://www.w3.org/2000/svg" viewBox="0 0 734.45 161.92"><defs><style>.cls-1{fill:#080817;}</style></defs><g id="Layer_2" data-name="Layer 2"><g id="Layer_1-2" data-name="Layer 1"><path class="cls-1" d="M309.32,72.46c4.77,6.07,7.19,14.51,7.19,25.31H271.59c.47,5.57,2,9.88,4.55,12.78a14,14,0,0,0,11,4.41,16.23,16.23,0,0,0,9.86-2.79,19.83,19.83,0,0,0,5.34-7.31h13.22a27.4,27.4,0,0,1-8.36,14,29.82,29.82,0,0,1-20,6.85c-8.94,0-16-2.79-21.24-8.23-5.57-5.69-8.36-13.48-8.36-23.46,0-8.94,2.55-16.37,7.89-22.41,5.11-6.16,12.13-9.1,21.13-9.1,9.88-.08,17.42,3.18,22.64,9.9M276.7,77a19.47,19.47,0,0,0-4.87,10.8h30.88c-1.16-9.76-6.39-14.51-15.68-14.51A13.79,13.79,0,0,0,276.7,77Z"/><path class="cls-1" d="M380.83,87.1v37H367.6V88.26c0-9.88-4.55-14.75-13.66-14.75A12.12,12.12,0,0,0,345.36,77a16.53,16.53,0,0,0-4.81,11v36.11H327.32v-60h13.23v7a24,24,0,0,1,7.89-6.39,21.68,21.68,0,0,1,9.86-2.2c14.94,0,22.53,8.12,22.53,24.61"/><path class="cls-1" d="M253.8,124.14,230.06,89.7a26.64,26.64,0,0,0,12.14-5C247.31,80.5,250,74.47,250,66.56V65c0-7.89-2.67-13.92-7.78-18.11-4.87-3.83-11.61-5.69-20.09-5.69h-37v82.89h13.66V90.35h14.52l23.18,33.79Zm-55-71.29h21.48c5.34,0,9.41,1.16,12.14,3.36a12.44,12.44,0,0,1,3.82,9.58,12.43,12.43,0,0,1-3.82,9.57c-2.79,2.2-6.84,3.37-12.14,3.37H198.76Z"/><polygon class="cls-1" points="22.2 34.14 34.14 27.28 35.75 30.04 79.76 4.66 76.55 2.81 73.31 0.93 71.7 0 0 41.42 0 43.27 20.59 31.36 22.2 34.14"/><polygon class="cls-1" points="22.2 60.22 56.7 40.28 58.31 43.09 102.32 17.69 99.11 15.81 95.88 13.96 94.27 13.05 0 67.47 0 69.32 20.59 57.41 22.2 60.22"/><polygon class="cls-1" points="22.2 73.25 67.97 46.82 69.6 49.6 113.6 24.17 110.38 22.35 107.16 20.47 105.54 19.54 0 80.47 0 82.36 20.59 70.46 22.2 73.25"/><polygon class="cls-1" points="22.2 86.27 79.58 53.15 81.2 55.92 124.88 30.71 121.67 28.83 118.44 26.98 116.83 26.05 0 93.52 0 95.37 20.59 83.46 22.2 86.27"/><polygon class="cls-1" points="22.2 99.27 90.87 59.64 92.48 62.45 136.16 37.2 132.94 35.37 129.72 33.49 128.1 32.56 0 106.53 0 108.38 20.59 96.5 22.2 99.27"/><polygon class="cls-1" points="141 40.01 139.39 39.07 0 119.57 0 121.42 20.59 109.55 22.2 112.32 90.87 72.69 92.48 75.47 143.41 46.08 143.41 42.35 143.41 41.42 141 40.01"/><polygon class="cls-1" points="8.83 129.33 20.38 122.67 21.98 125.44 90.53 85.88 92.14 88.68 143.41 59.08 143.41 55.35 143.41 51.62 143.41 49.77 7.25 128.41 8.83 129.33"/><polygon class="cls-1" points="18.53 134.91 20.15 135.84 31.86 129.06 33.49 131.86 90.53 98.92 92.14 101.73 143.41 72.13 143.41 68.4 143.41 64.67 143.41 62.81 18.53 134.91"/><polygon class="cls-1" points="31.42 142.36 43.15 135.57 44.76 138.37 90.53 111.93 92.14 114.73 143.41 85.13 143.41 81.4 143.41 77.7 143.41 75.83 29.78 141.41 31.42 142.36"/><polygon class="cls-1" points="42.7 148.87 54.42 142.1 56.05 144.88 90.53 124.98 92.14 127.75 143.41 98.15 143.41 94.45 143.41 90.72 143.41 88.86 41.09 147.95 42.7 148.87"/><polygon class="cls-1" points="52.38 154.46 53.98 155.38 65.74 148.6 67.32 151.41 90.53 137.98 92.14 140.78 143.41 111.18 143.41 107.45 143.41 103.72 143.41 101.87 52.38 154.46"/><polygon class="cls-1" points="65.26 161.92 76.98 155.11 78.59 157.91 90.53 151 92.14 153.8 143.41 124.23 143.41 120.5 143.41 116.77 143.41 114.92 63.65 161 65.26 161.92"/><polygon class="cls-1" points="91.05 11.17 87.82 9.32 84.6 7.46 82.99 6.51 0 54.42 0 56.27 20.59 44.41 22.2 47.17 45.41 33.77 47.06 36.58 91.05 11.17"/><path class="cls-1" d="M435,39.86c15.39,0,29.73,4,29.73,21.06,0,7.86-3.82,15-9.26,18.16C463,82.43,468.11,88.22,468.11,99c0,17.82-13.65,24.76-30.65,24.76H404.14V39.86Zm1.62,35.52c9,0,14.81-3.82,14.81-12.84,0-8-6-11.8-14.81-11.8H417.33V75.38Zm1.16,37.47c11.22,0,16.77-5,16.77-13.88,0-9.25-5.55-13.42-17.47-13.42H417.33v27.3Z"/><path class="cls-1" d="M505.17,73.52c-9.26,0-14.11,4.52-14.11,17.59v32.62H479V61.49h11.79v11a18.61,18.61,0,0,1,17.24-11.22,31.54,31.54,0,0,1,3.36.12V73.87A60.39,60.39,0,0,0,505.17,73.52Z"/><path class="cls-1" d="M530.05,53.17H518V39.86h12Zm0,70.56H518V61.49h12Z"/><path class="cls-1" d="M597.86,39.86v83.87h-12v-8.79c-3.82,6.36-10.29,10.29-19.43,10.29-14.46,0-26.84-12.14-26.84-32.5s12.38-32.39,26.84-32.39c9.14,0,15.61,3.93,19.43,10.29V39.86ZM552.4,92.73c0,14,6.82,22.44,16.77,22.44,9.26,0,17.12-7.06,17.12-22.44S578.43,70.4,569.17,70.4C559.22,70.4,552.4,78.73,552.4,92.73Z"/><path class="cls-1" d="M665.09,61.49v55c0,11.45-2.42,17.58-6.71,21.86-4.74,5-12.26,7.52-21.74,7.52-13.88,0-24.06-6-26-19.08H623c1.27,5.66,4.86,9,13.88,9,5.9,0,10-1.62,12.49-4.51,2.43-2.66,3.7-5.9,3.7-12.26v-6.6c-3.81,6.36-10.06,10.3-19.2,10.3-14.46,0-26.49-11.45-26.49-31.24s12-31.11,26.49-31.11c9.14,0,15.39,3.93,19.2,10.29V61.49Zm-44.88,30c0,13.54,6.48,21.4,16.43,21.4,9.25,0,16.89-6.47,16.89-21.4s-7.64-21.16-16.89-21.16C626.69,70.29,620.21,78.15,620.21,91.45Z"/><path class="cls-1" d="M733.54,105.45c-2.89,10.3-12.14,19.78-28,19.78-20.13,0-31-14.69-31-32.73,0-19.32,13-32.16,30.65-32.16,19.2,0,30.43,15.73,29.15,36H686.92c1.16,11.45,8.45,18.63,18.17,18.63,8.67,0,13.76-3.59,16.31-9.49ZM721.86,86.83c-.35-9.26-6.82-16.66-16.77-16.66-9.37,0-16.31,4.86-17.93,16.66Z"/></g></g></svg>