<?xml version="1.0" encoding="utf-8"?>
<!-- Generator: Adobe Illustrator 24.1.2, SVG Export Plug-In . SVG Version: 6.00 Build 0)  -->
<svg version="1.1" id="Layer_1" xmlns="http://www.w3.org/2000/svg" xmlns:xlink="http://www.w3.org/1999/xlink" x="0px" y="0px"
	 viewBox="0 0 71 71" style="enable-background:new 0 0 71 71;" xml:space="preserve">
<style type="text/css">
	.st0{fill:#F3B63B;}
</style>
<g>
	<path d="M35.5,0C15.9,0,0,15.9,0,35.5S15.9,71,35.5,71S71,55.1,71,35.5C71,15.9,55.1,0,35.5,0z M35.5,65.1
		c-16.4,0-29.6-13.3-29.6-29.6S19.1,5.9,35.5,5.9s29.6,13.3,29.6,29.6C65.1,51.9,51.9,65.1,35.5,65.1z"/>
	<path class="st0" d="M35.5,7.5c-15.5,0-28,12.5-28,28s12.5,28,28,28s28-12.5,28-28l0,0C63.5,20.1,51,7.5,35.5,7.5z"/>
	<polygon points="48.2,24.4 33.2,44.8 48.2,44.8 48.2,52 38.5,52 38.5,57.9 32.5,57.9 32.5,52 22.8,52 22.8,46.5 37.8,26.2 
		22.8,26.2 22.8,19 32.5,19 32.5,13.1 38.5,13.1 38.5,19 48.2,19 	"/>
</g>
</svg>
